HIERARCHY
ROOT Hips
{
  OFFSET 51.363 84.4131 7.76468
  CHANNELS 6 Xposition Yposition Zposition Zrotation Xrotation Yrotation
  JOINT spine
  {
    OFFSET 0 5.95438 0.342407
    CHANNELS 3 Zrotation Xrotation Yrotation
    JOINT spine1
    {
      OFFSET 0 8.85602 0
      CHANNELS 3 Zrotation Xrotation Yrotation
      JOINT spine2
      {
        OFFSET 0 8.48567 0
        CHANNELS 3 Zrotation Xrotation Yrotation
        JOINT Neck
        {
          OFFSET 0 21.7863 1.0387
          CHANNELS 3 Zrotation Xrotation Yrotation
          JOINT Head
          {
            OFFSET 0 6.5822 0
            CHANNELS 3 Zrotation Xrotation Yrotation
            End Site
            {
              OFFSET 0 15.9326 -5.25436
            }
          }
        }
        JOINT RightShoulder
        {
          OFFSET -3.57307 9.16386 -0.497525
          CHANNELS 3 Zrotation Xrotation Yrotation
          JOINT RightArm
          {
            OFFSET 0 12.0192 0
            CHANNELS 3 Zrotation Xrotation Yrotation
            JOINT RightArmRoll
            {
              OFFSET 0 6.06755 0
              CHANNELS 3 Zrotation Xrotation Yrotation
              JOINT RightForeArm
              {
                OFFSET 0 17.6726 0
                CHANNELS 3 Zrotation Xrotation Yrotation
                JOINT RightForeArmRoll
                {
                  OFFSET 0 6.80872 0
                  CHANNELS 3 Zrotation Xrotation Yrotation
                  JOINT RightHand
                  {
                    OFFSET 0 13.6636 0
                    CHANNELS 3 Zrotation Xrotation Yrotation
                    End Site
                    {
                      OFFSET 0 0 0
                    }
                  }
                }
              }
            }
          }
        }
        JOINT LeftShoulder
        {
          OFFSET 3.57307 9.16386 -0.497525
          CHANNELS 3 Zrotation Xrotation Yrotation
          JOINT LeftArm
          {
            OFFSET 0 12.0192 0
            CHANNELS 3 Zrotation Xrotation Yrotation
            JOINT LeftArmRoll
            {
              OFFSET 0 6.06755 0
              CHANNELS 3 Zrotation Xrotation Yrotation
              JOINT LeftForeArm
              {
                OFFSET 0 17.6726 0
                CHANNELS 3 Zrotation Xrotation Yrotation
                JOINT LeftForeArmRoll
                {
                  OFFSET 0 6.80872 0
                  CHANNELS 3 Zrotation Xrotation Yrotation
                  JOINT LeftHand
                  {
                    OFFSET 0 13.6636 0
                    CHANNELS 3 Zrotation Xrotation Yrotation
                    End Site
                    {
                      OFFSET 0 0 0
                    }
                  }
                }
              }
            }
          }
        }
      }
    }
  }
  JOINT RightUpLeg
  {
    OFFSET -5.27774 -0.967797 -0.811858
    CHANNELS 3 Zrotation Xrotation Yrotation
    JOINT RightUpLegRoll
    {
      OFFSET 0 16.0214 0
      CHANNELS 3 Zrotation Xrotation Yrotation
      JOINT RightLeg
      {
        OFFSET 0 -19.8401 0
        CHANNELS 3 Zrotation Xrotation Yrotation
        JOINT RightLegRoll
        {
          OFFSET 0 19.905 0
          CHANNELS 3 Zrotation Xrotation Yrotation
          JOINT RightFoot
          {
            OFFSET 0 16.5675 0
            CHANNELS 3 Zrotation Xrotation Yrotation
            JOINT RightToeBase
            {
              OFFSET 0 13.8496 0
              CHANNELS 3 Zrotation Xrotation Yrotation
              End Site
              {
                OFFSET 0.00587034 6.70727 -0.773117
              }
            }
          }
        }
      }
    }
  }
  JOINT LeftUpLeg
  {
    OFFSET 5.27774 -0.967797 -0.811858
    CHANNELS 3 Zrotation Xrotation Yrotation
    JOINT LeftUpLegRoll
    {
      OFFSET 0 16.0215 0
      CHANNELS 3 Zrotation Xrotation Yrotation
      JOINT LeftLeg
      {
        OFFSET 0 19.84 0
        CHANNELS 3 Zrotation Xrotation Yrotation
        JOINT LeftLegRoll
        {
          OFFSET 0 20.089 0
          CHANNELS 3 Zrotation Xrotation Yrotation
          JOINT LeftFoot
          {
            OFFSET 0 16.3835 0
            CHANNELS 3 Zrotation Xrotation Yrotation
            JOINT LeftToeBase
            {
              OFFSET 0 13.8496 0
              CHANNELS 3 Zrotation Xrotation Yrotation
              End Site
              {
                OFFSET -0.0263083 6.70728 -0.773116
              }
            }
          }
        }
      }
    }
  }
}
MOTION
Frames: 5
Frame Time: 0.00208333
51.4402 84.3987 6.27033 -3.57118 -4.1275 -2.34261 0.235984 -2.26622 -0.113244 0.468663 -0.518793 -0.24489 0.471669 1.12625 -0.252959 -2.60191 11.425 -0.00421364 12.5213 -4.98992 0.747228 24.9501 -11.3616 -7.65936 46.6483 29.5827 41.2617 -2.44609e-007 -1.87801e-006 3.10764e-006 -3.753 11.9895 -1.68136 2.68261e-005 3.23164e-006 -2.99968 8.03008 -4.95139 0.697628 -23.5885 -11.1708 7.46262 -18.5858 41.4456 -61.1712 -1.0562e-005 8.99022e-007 8.57981e-007 3.63708 -0.023436 1.99225 -3.79537e-006 -1.12877e-007 3.01161 -8.03008 -4.95138 -0.697615 -177.614 0.640942 1.49142 -180 7.01541e-015 178.899 177.249 7.81418 179.907 1.62963e-007 2.19174e-006 0.0867326 -18.4396 67.6242 19.2197 8.13649 25.2327 -3.48773 -173.342 4.19988 -3.31781 4.54188e-006 -4.6773e-006 -1.05133 -2.5466 -14.1089 0.0877068 3.87818e-006 -2.10819e-006 -0.250476 20.7665 70.3603 -21.7504 -8.13649 25.2327 3.48774 
51.4284 84.3985 6.27531 -3.56483 -4.11015 -2.32511 0.23712 -2.26693 -0.112735 0.471831 -0.520746 -0.243701 0.474824 1.1243 -0.251907 -2.73801 11.3926 0.00782124 12.6426 -4.91677 0.722635 24.5769 -11.4225 -7.73915 46.7343 29.5178 41.2798 -2.44609e-007 -1.87801e-006 3.10764e-006 -3.76319 12.7809 -1.65942 2.68261e-005 3.23164e-006 -2.99944 8.03008 -4.95139 0.697628 -23.4548 -11.2277 7.53369 -17.8206 41.5068 -61.7856 -1.0562e-005 8.99022e-007 8.57981e-007 3.63711 -0.023455 1.99225 -3.79537e-006 -1.12877e-007 3.01161 -8.03008 -4.95138 -0.697615 -177.615 0.646206 1.48741 -180 7.01541e-015 178.899 177.252 7.79418 179.907 1.62963e-007 2.19174e-006 0.0862825 -18.4386 67.6236 19.2192 8.13649 25.2327 -3.48773 -173.341 4.20616 -3.32077 4.54188e-006 -4.6773e-006 -1.05063 -2.55512 -14.0871 0.0864101 3.87818e-006 -2.10819e-006 -0.250127 20.7711 70.3648 -21.7559 -8.13649 25.2327 3.48774 
51.436 84.3999 6.27387 -3.55679 -4.09389 -2.30855 0.237963 -2.26742 -0.112219 0.474607 -0.522482 -0.242472 0.477587 1.12256 -0.250783 -2.87882 11.3614 0.0214051 12.7677 -4.84372 0.698408 24.2064 -11.4819 -7.81873 46.8195 29.4479 41.3003 -2.44609e-007 -1.87801e-006 3.10764e-006 -3.77405 13.5932 -1.63664 2.68261e-005 3.23164e-006 -2.99928 8.03008 -4.95139 0.697628 -23.3238 -11.2839 7.60413 -17.054 41.5616 -62.4016 -1.0562e-005 8.99022e-007 8.57981e-007 3.63714 -0.0234742 1.99225 -3.79537e-006 -1.12877e-007 3.01161 -8.03008 -4.95138 -0.697615 -177.617 0.651373 1.48491 -180 7.01542e-015 178.9 177.253 7.77617 179.907 1.62963e-007 2.19174e-006 0.0859022 -18.4379 67.6235 19.2192 8.13649 25.2327 -3.48773 -173.343 4.20959 -3.32213 4.54188e-006 -4.6773e-006 -1.04999 -2.56325 -14.0628 0.0853412 3.87818e-006 -2.10819e-006 -0.249772 20.7759 70.3693 -21.7615 -8.13649 25.2327 3.48774 
51.4676 84.399 6.28381 -3.54731 -4.07867 -2.29283 0.23856 -2.26771 -0.111692 0.477042 -0.524001 -0.241203 0.480008 1.12104 -0.249591 -3.02327 11.3316 0.0363144 12.8955 -4.77101 0.674586 23.8389 -11.5397 -7.89776 46.9025 29.3738 41.324 -2.44609e-007 -1.87801e-006 3.10764e-006 -3.78558 14.4218 -1.61318 2.68261e-005 3.23164e-006 -2.99918 8.03008 -4.95139 0.697628 -23.1949 -11.3391 7.67388 -16.287 41.61 -63.0185 -1.0562e-005 8.99022e-007 8.57981e-007 3.63717 -0.0234933 1.99225 -3.79537e-006 -1.12877e-007 3.01161 -8.03008 -4.95138 -0.697615 -177.622 0.656405 1.4837 -180 7.01542e-015 178.9 177.255 7.75997 179.907 1.62963e-007 2.19174e-006 0.0855833 -18.4377 67.6237 19.2196 8.13649 25.2327 -3.48773 -173.346 4.21055 -3.32213 4.54188e-006 -4.6773e-006 -1.04939 -2.57105 -14.0365 0.0844681 3.87818e-006 -2.10819e-006 -0.249414 20.7806 70.3739 -21.7671 -8.13649 25.2327 3.48774 
51.4579 84.3987 6.28477 -3.53666 -4.06441 -2.27786 0.238953 -2.26781 -0.111151 0.479189 -0.5253 -0.239897 0.482141 1.11974 -0.248337 -3.17031 11.3032 0.052326 13.0252 -4.69889 0.651211 23.4748 -11.5956 -7.97587 46.9818 29.2967 41.3519 -2.44609e-007 -1.87801e-006 3.10764e-006 -3.79778 15.2625 -1.58918 2.68261e-005 3.23164e-006 -2.99914 8.03008 -4.95139 0.697628 -23.0678 -11.3935 7.74292 -15.5203 41.652 -63.6354 -1.0562e-005 8.99022e-007 8.57981e-007 3.63719 -0.0235126 1.99225 -3.79537e-006 -1.12877e-007 3.01161 -8.03008 -4.95138 -0.697615 -177.628 0.661263 1.48357 -180 7.01542e-015 178.901 177.256 7.74532 179.907 1.62963e-007 2.19174e-006 0.0853176 -18.4377 67.6243 19.2203 8.13649 25.2327 -3.48773 -173.352 4.20941 -3.321 4.54188e-006 -4.6773e-006 -1.04883 -2.57855 -14.0086 0.0837585 3.87818e-006 -2.10819e-006 -0.249053 20.7853 70.3784 -21.7726 -8.13649 25.2327 3.48774 
